# xmcd
#
# Track frame offsets:
#	150
#	13160
#	32122
#	52418
#	71795
#	82073
#	98689
#	117184
#	130836
#	149994
#	178944
#	200852
#	214547
#	231158
#	254408
#	267398
#	280028
#	294474
#	305938
#	321520
#	336287
#
# Disc length: 4789 seconds
#
# Revision: 0
# Processed by: cddbd v1.5.1PL2 Copyright (c) Steve Scherf et al.
# Submitted via: audiograbber 1.83.01
#
DISCID=6512b315
DTITLE=Various Artist - Capital Gold Blues Legends CD1
DYEAR=2005
DGENRE=Blues
TTITLE0=Fleetwood Mac - Black Magic Woman
TTITLE1=Gary Moore - Still Got The Blues
TTITLE2=The Animals - The House Of The Rising Sun
TTITLE3=John Lee Hooker - Boom Boom
TTITLE4=John Mayall and The Bluesbreakers - Crawling Up A Hill
TTITLE5=Stevie Ray Vaughan - Pride And Joy
TTITLE6=The Robert Cray Band - Smoking Gun
TTITLE7=Taj Mahal - Six Days On The Road
TTITLE8=The Allman Brothers Band - Statesboro Blues (Live)
TTITLE9=Rory Gallagher - Messin' With The Kid (Live)
TTITLE10=George Thorogood and The Destroyers - Bad ToThe Bone
TTITLE11=Juicy Lucy - Who Do You Love
TTITLE12=Dr Feelgood - (Get Your Kicks On) Route 66 (Live)
TTITLE13=Free - The Hunter (Live)
TTITLE14=Gary Moore and B.B. King - Since I Met You Baby
TTITLE15=Canned Heat - Let's Work Together
TTITLE16=Johnny Winter - Rollin' And Tumblin'
TTITLE17=Jeff Beck - You Shook Me
TTITLE18=Sonny Terry and Brownie McGhee - Key To The Highway
TTITLE19=Chicken Shack - I'd Rather Go Blind
TTITLE20=Bonnie Raitt - Love Me Like A Man (Live)
EXTD=This is a Compilation Disc Artists and Track Names
EXTT0=
EXTT1=
EXTT2=
EXTT3=
EXTT4=
EXTT5=
EXTT6=
EXTT7=
EXTT8=
EXTT9=
EXTT10=
EXTT11=
EXTT12=
EXTT13=
EXTT14=
EXTT15=
EXTT16=
EXTT17=
EXTT18=
EXTT19=
EXTT20=
PLAYORDER=
